HIERARCHY
ROOT joint_Root
{
	OFFSET 0.0 0.0 0.0
	CHANNELS 6 Xposition Yposition Zposition Zrotation Xrotation Yrotation 
	JOINT Hips
	{
		OFFSET -0.726466 93.3139 -2.00062
		CHANNELS 6 Xposition Yposition Zposition Zrotation Xrotation Yrotation 
		JOINT Spine
		{
			OFFSET 15.7357 0.0 0.0
			CHANNELS 6 Xposition Yposition Zposition Zrotation Xrotation Yrotation 
			JOINT Chest
			{
				OFFSET 8.98455 -0.406207 0.0
				CHANNELS 6 Xposition Yposition Zposition Zrotation Xrotation Yrotation 
				JOINT Neck
				{
					OFFSET 16.3773 0.0 0.0
					CHANNELS 6 Xposition Yposition Zposition Zrotation Xrotation Yrotation 
					JOINT Head
					{
						OFFSET 6.45672 0.0 0.0
						CHANNELS 6 Xposition Yposition Zposition Zrotation Xrotation Yrotation 
						End Site
						{
							OFFSET 0.0 0.0 0.0
						}
					}
				}
				JOINT Shoulder_L
				{
					OFFSET 12.9942 -0.242716 4.98039
					CHANNELS 6 Xposition Yposition Zposition Zrotation Xrotation Yrotation 
					JOINT UpperArm_L
					{
						OFFSET 5.34809 0.0 0.0
						CHANNELS 6 Xposition Yposition Zposition Zrotation Xrotation Yrotation 
						JOINT LowerArm_L
						{
							OFFSET 24.3286 1.87007e-05 0.0
							CHANNELS 6 Xposition Yposition Zposition Zrotation Xrotation Yrotation 
							JOINT Hand_L
							{
								OFFSET 22.2916 0.0 0.0
								CHANNELS 6 Xposition Yposition Zposition Zrotation Xrotation Yrotation 
								End Site
								{
									OFFSET 0.0 0.0 0.0
								}
							}
						}
					}
				}
				JOINT Shoulder_R
				{
					OFFSET 12.9945 -0.242716 -4.98039
					CHANNELS 6 Xposition Yposition Zposition Zrotation Xrotation Yrotation 
					JOINT UpperArm_R
					{
						OFFSET -5.34813 0.0 0.0
						CHANNELS 6 Xposition Yposition Zposition Zrotation Xrotation Yrotation 
						JOINT LowerArm_R
						{
							OFFSET -24.3289 0.000322201 0.0
							CHANNELS 6 Xposition Yposition Zposition Zrotation Xrotation Yrotation 
							JOINT Hand_R
							{
								OFFSET -22.2915 -0.000108084 0.0
								CHANNELS 6 Xposition Yposition Zposition Zrotation Xrotation Yrotation 
								End Site
								{
									OFFSET 0.0 0.0 0.0
								}
							}
						}
					}
				}
			}
		}
		JOINT UpperLeg_L
		{
			OFFSET -2.19248 -6.46944 0.0
			CHANNELS 6 Xposition Yposition Zposition Zrotation Xrotation Yrotation 
			JOINT LowerLeg_L
			{
				OFFSET 39.0811 0.0 -1.23785e-05
				CHANNELS 6 Xposition Yposition Zposition Zrotation Xrotation Yrotation 
				JOINT Foot_L
				{
					OFFSET 40.9854 0.0 -1.26872e-05
					CHANNELS 6 Xposition Yposition Zposition Zrotation Xrotation Yrotation 
					JOINT Toes_L
					{
						OFFSET 11.7543 0.0 0.0
						CHANNELS 6 Xposition Yposition Zposition Zrotation Xrotation Yrotation 
						End Site
						{
							OFFSET 0.0 0.0 0.0
						}
					}
				}
			}
		}
		JOINT UpperLeg_R
		{
			OFFSET -2.19251 6.46944 0.0
			CHANNELS 6 Xposition Yposition Zposition Zrotation Xrotation Yrotation 
			JOINT LowerLeg_R
			{
				OFFSET -39.0811 -0.00228153 -0.0401928
				CHANNELS 6 Xposition Yposition Zposition Zrotation Xrotation Yrotation 
				JOINT Foot_R
				{
					OFFSET -40.9854 0.0 0.0
					CHANNELS 6 Xposition Yposition Zposition Zrotation Xrotation Yrotation 
					JOINT Toes_R
					{
						OFFSET -11.7543 0.0 0.0
						CHANNELS 6 Xposition Yposition Zposition Zrotation Xrotation Yrotation 
						End Site
						{
							OFFSET 0.0 0.0 0.0
						}
					}
				}
			}
		}
	}
}
MOTION
Frames:	5
Frame Time:	0.0333333
0.000000 0.000000 0.000000 0.000000 0.000000 -0.000000 -1.781160 92.350700 -0.728389 88.545800 0.730351 2.683300 15.735700 0.000005 -0.000001 79.859700 85.693800 -78.288800 8.984550 -0.406207 -0.000000 0.736287 -1.612070 3.150040 16.377300 -0.000001 -0.000001 3.155490 -2.413080 -1.838450 6.456720 -0.000001 -0.000000 5.286230 -3.282290 -0.929170 12.994200 -0.242716 4.980390 -87.489900 -6.808310 -69.705900 5.348090 -0.000007 -0.000001 -84.259000 -38.798100 -89.867500 24.328600 0.000019 0.000005 -0.037994 -0.000232 -89.628000 22.291600 -0.000001 0.000005 19.980900 5.593700 -10.972600 12.994500 -0.242716 -4.980390 88.348500 5.498630 -73.253700 -5.348130 -0.000001 -0.000004 -63.297400 39.583600 -17.324300 -24.328900 0.000322 -0.000009 2.052000 7.240710 -15.876800 -22.291500 -0.000108 -0.000004 8.558240 5.426960 -3.835020 -2.192480 -6.469440 -0.000000 -175.476000 -5.260410 -3.309410 39.081100 -0.000007 -0.000012 -0.105864 0.265956 21.705200 40.985400 -0.000006 -0.000013 -0.715223 4.510310 -65.977900 11.754300 -0.000000 0.000003 -0.000027 -0.000331 -16.590500 -2.192510 6.469440 -0.000001 -179.550000 14.779800 179.866000 -39.081100 -0.002282 -0.040193 0.009775 -0.019108 18.654400 -40.985400 0.000008 0.000006 5.588450 5.774380 -66.710800 -11.754300 -0.000006 -0.000006 -0.005650 -0.067626 -19.325100
0.000000 0.000000 0.000000 0.000000 0.000000 -0.000000 -1.777300 92.337300 -0.689187 88.543500 0.701852 2.706940 15.735700 0.000005 -0.000001 79.854600 85.690400 -78.302500 8.984550 -0.406207 -0.000000 0.742643 -1.612810 3.112470 16.377300 -0.000001 -0.000001 3.192830 -2.384430 -1.855590 6.456720 -0.000001 -0.000000 5.236860 -3.238040 -0.935869 12.994200 -0.242716 4.980390 -87.475100 -6.850780 -69.711600 5.348090 -0.000007 -0.000001 -83.857300 -39.131700 -89.366500 24.328600 0.000019 0.000005 0.093905 0.000296 -89.828600 22.291600 -0.000001 0.000005 20.218200 5.594900 -11.041900 12.994500 -0.242716 -4.980390 88.341900 5.509500 -73.222100 -5.348130 -0.000001 -0.000004 -63.428000 39.661400 -17.272700 -24.328900 0.000322 -0.000009 2.073930 7.293710 -15.927900 -22.291500 -0.000108 -0.000004 8.501190 5.428820 -3.898400 -2.192480 -6.469440 -0.000000 -175.467000 -5.328670 -3.284910 39.081100 -0.000007 -0.000012 -0.106500 0.266563 21.778200 40.985400 -0.000006 -0.000013 -0.704466 4.531220 -66.048100 11.754300 -0.000000 0.000003 -0.000024 -0.000297 -16.589200 -2.192510 6.469440 -0.000001 -179.563000 14.722900 179.883000 -39.081100 -0.002282 -0.040193 0.008522 -0.015337 18.724600 -40.985400 0.000008 0.000006 5.544230 5.756280 -66.765100 -11.754300 -0.000006 -0.000006 -0.005585 -0.067020 -19.300400
0.000000 0.000000 0.000000 0.000000 0.000000 -0.000000 -1.779500 92.338400 -0.660294 88.525800 0.713225 2.677360 15.735700 0.000005 -0.000001 79.618900 85.704400 -78.074800 8.984550 -0.406207 -0.000000 0.708879 -1.642580 3.096170 16.377300 -0.000001 -0.000001 3.166480 -2.357500 -1.848960 6.456720 -0.000001 -0.000000 5.273400 -3.155830 -1.019490 12.994200 -0.242716 4.980390 -87.480700 -6.848300 -69.746800 5.348090 -0.000007 -0.000001 -82.982300 -39.612500 -88.297200 24.328600 0.000019 0.000005 0.805590 -0.004654 -90.327500 22.291600 -0.000001 0.000005 20.475600 5.594450 -11.016300 12.994500 -0.242716 -4.980390 88.328400 5.535440 -73.167400 -5.348130 -0.000001 -0.000004 -63.607600 39.695700 -17.181200 -24.328900 0.000322 -0.000009 2.107790 7.400580 -15.954100 -22.291500 -0.000108 -0.000004 8.489870 5.428350 -3.882390 -2.192480 -6.469440 -0.000000 -175.443000 -5.306070 -3.284340 39.081100 -0.000007 -0.000012 -0.107032 0.268138 21.760300 40.985400 -0.000006 -0.000013 -0.712150 4.537200 -66.061600 11.754300 -0.000000 0.000003 -0.000025 -0.000311 -16.589700 -2.192510 6.469440 -0.000001 -179.513000 14.715400 179.892000 -39.081100 -0.002282 -0.040193 0.012906 -0.028330 18.687800 -40.985400 0.000008 0.000006 5.669140 5.685310 -66.784200 -11.754300 -0.000006 -0.000006 -0.005613 -0.067280 -19.311000
0.000000 0.000000 0.000000 0.000000 0.000000 -0.000000 -1.770900 92.334500 -0.634094 88.526300 0.682640 2.686790 15.735700 0.000005 -0.000001 79.566400 85.704300 -78.037600 8.984550 -0.406207 -0.000000 0.707492 -1.649440 3.065770 16.377300 -0.000001 -0.000001 3.172810 -2.322460 -1.869920 6.456720 -0.000001 -0.000000 5.223920 -3.097820 -0.999332 12.994200 -0.242716 4.980390 -87.505400 -6.811560 -69.830600 5.348090 -0.000007 -0.000001 -81.477300 -40.240400 -86.430200 24.328600 0.000019 0.000005 1.609960 -0.033222 -91.183200 22.291600 -0.000001 0.000005 20.674100 5.594680 -11.029400 12.994500 -0.242716 -4.980390 88.301700 5.587570 -73.063700 -5.348130 -0.000001 -0.000004 -63.898600 39.540800 -17.003000 -24.328900 0.000322 -0.000009 2.111810 7.379910 -16.025200 -22.291500 -0.000108 -0.000004 8.504320 5.428320 -3.881600 -2.192480 -6.469440 -0.000000 -175.442000 -5.357390 -3.263780 39.081100 -0.000007 -0.000012 -0.107649 0.269460 21.776600 40.985400 -0.000006 -0.000013 -0.700140 4.561250 -66.086700 11.754300 -0.000000 0.000003 -0.000029 -0.000352 -16.591300 -2.192510 6.469440 -0.000001 -179.525000 14.651100 179.911000 -39.081100 -0.002282 -0.040193 0.013024 -0.028656 18.701400 -40.985400 0.000008 0.000006 5.650250 5.675130 -66.802800 -11.754300 -0.000006 -0.000006 -0.005639 -0.067516 -19.320600
0.000000 0.000000 0.000000 0.000000 0.000000 -0.000000 -1.759680 92.332100 -0.617391 88.523800 0.592605 2.670850 15.735700 0.000005 -0.000001 79.756900 85.712200 -78.241700 8.984550 -0.406207 -0.000000 0.696498 -1.617870 3.038100 16.377300 -0.000001 -0.000001 3.130230 -2.285660 -1.834680 6.456720 -0.000001 -0.000000 5.230540 -3.056040 -1.008150 12.994200 -0.242716 4.980390 -87.545600 -6.736910 -69.928200 5.348090 -0.000007 -0.000001 -79.104300 -40.820800 -83.384400 24.328600 0.000019 0.000005 1.356180 -0.061025 -92.580900 22.291600 -0.000001 0.000005 20.870200 5.595870 -11.098600 12.994500 -0.242716 -4.980390 88.279300 5.635510 -72.990500 -5.348130 -0.000001 -0.000004 -64.090600 39.619400 -16.863700 -24.328900 0.000322 -0.000009 2.076320 7.214930 -16.109500 -22.291500 -0.000108 -0.000004 8.530370 5.426600 -3.822830 -2.192480 -6.469440 -0.000000 -175.448000 -5.403900 -3.247780 39.081100 -0.000007 -0.000012 -0.107397 0.268831 21.776700 40.985400 -0.000006 -0.000013 -0.697892 4.530050 -66.113700 11.754300 -0.000000 0.000003 -0.000027 -0.000328 -16.590400 -2.192510 6.469440 -0.000001 -179.529000 14.513400 179.894000 -39.081100 -0.002282 -0.040193 0.010324 -0.020672 18.708700 -40.985400 0.000008 0.000006 5.574730 5.666560 -66.796200 -11.754300 -0.000006 -0.000006 -0.005578 -0.066954 -19.297700
